<svg width="160" height="160" viewBox="0 0 160 160" fill="none" xmlns="http://www.w3.org/2000/svg">
<path d="M80 15C44.1594 15 15 44.1594 15 80C15 115.841 44.1594 145 80 145C115.841 145 145 115.841 145 80C145 44.1594 115.841 15 80 15ZM101.656 45.0531C106.136 45.0593 110.513 46.3933 114.235 48.8866C117.957 51.3798 120.856 54.9204 122.566 59.0608C124.276 63.2013 124.72 67.7557 123.842 72.1485C122.964 76.5413 120.804 80.5754 117.634 83.7408C114.465 86.9062 110.428 89.0609 106.034 89.9325C101.64 90.8042 97.0857 90.3537 92.9476 88.638C88.8096 86.9223 85.273 84.0184 82.7849 80.2933C80.2967 76.5681 78.9688 72.189 78.9688 67.7094C78.9708 64.7321 79.5593 61.7843 80.7005 59.0344C81.8418 56.2845 83.5135 53.7863 85.6202 51.6825C87.727 49.5787 90.2274 47.9104 92.9789 46.7729C95.7304 45.6355 98.6789 45.0511 101.656 45.0531ZM53.1875 53.2906C56.8528 53.2956 60.4344 54.387 63.4796 56.4269C66.5247 58.4668 68.8969 61.3637 70.2961 64.7514C71.6953 68.1392 72.0588 71.8656 71.3408 75.4599C70.6227 79.0542 68.8552 82.3549 66.2617 84.9449C63.6681 87.5349 60.365 89.298 56.7698 90.0112C53.1746 90.7245 49.4486 90.3559 46.0627 88.9521C42.6769 87.5483 39.7832 85.1723 37.7474 82.1244C35.7116 79.0765 34.625 75.4934 34.625 71.8281C34.6262 69.392 35.1074 66.98 36.041 64.7298C36.9746 62.4797 38.3423 60.4355 40.0661 58.714C41.7899 56.9926 43.8359 55.6276 46.0873 54.697C48.3387 53.7665 50.7514 53.2886 53.1875 53.2906ZM29.4844 101.728C37.1406 97.575 46.9437 95.4969 53.1875 95.4969C57.875 95.4969 63.9125 96.4344 69.8531 98.6844C65.8708 100.907 62.2812 103.769 59.2281 107.156C55.1063 111.844 52.7406 117.444 52.7406 123.041V127.728C42.3904 121.8 34.2331 112.685 29.4844 101.744V101.728ZM80 135C73.6724 135.005 67.3918 133.913 61.4375 131.772V123.319C61.4375 106.884 88.2344 98.6031 101.656 98.6031C108.844 98.6031 119.9 100.987 128.597 105.731C123.917 114.562 116.921 121.952 108.359 127.108C99.7981 132.265 89.9943 134.993 80 135Z" fill="#009FB7"/>
</svg>
