<svg width="256" height="256" viewBox="0 0 256 256" fill="none" xmlns="http://www.w3.org/2000/svg">
<path d="M256 127.872C256 57.28 198.656 0 128 0C57.344 0 0 57.28 0 127.872C0 166.752 17.664 201.792 45.312 225.312C45.568 225.568 45.824 225.568 45.824 225.824C48.128 227.616 50.432 229.408 52.992 231.2C54.272 231.968 55.296 232.976 56.576 234C77.7291 248.342 102.699 256.006 128.256 256C153.813 256.006 178.783 248.342 199.936 234C201.216 233.232 202.24 232.224 203.52 231.44C205.824 229.664 208.384 227.872 210.688 226.08C210.944 225.824 211.2 225.824 211.2 225.568C238.336 201.776 256 166.752 256 127.872V127.872ZM128 239.888C103.936 239.888 81.92 232.208 63.744 219.424C64 217.376 64.512 215.344 65.024 213.296C66.5494 207.746 68.7867 202.416 71.68 197.44C74.496 192.576 77.824 188.224 81.92 184.384C85.76 180.544 90.368 176.976 94.976 174.16C99.84 171.344 104.96 169.296 110.592 167.76C116.268 166.23 122.122 165.461 128 165.472C145.45 165.348 162.26 172.042 174.848 184.128C180.736 190.016 185.344 196.928 188.672 204.848C190.464 209.456 191.744 214.32 192.512 219.424C173.619 232.707 151.095 239.851 128 239.888ZM88.832 121.488C86.5764 116.324 85.442 110.739 85.504 105.104C85.504 99.488 86.528 93.856 88.832 88.736C91.136 83.616 94.208 79.024 98.048 75.184C101.888 71.344 106.496 68.288 111.616 65.984C116.736 63.68 122.368 62.656 128 62.656C133.888 62.656 139.264 63.68 144.384 65.984C149.504 68.288 154.112 71.36 157.952 75.184C161.792 79.024 164.864 83.632 167.168 88.736C169.472 93.856 170.496 99.488 170.496 105.104C170.496 110.992 169.472 116.368 167.168 121.472C164.944 126.516 161.822 131.114 157.952 135.04C154.024 138.904 149.427 142.021 144.384 144.24C133.805 148.587 121.939 148.587 111.36 144.24C106.317 142.021 101.72 138.904 97.792 135.04C93.917 131.171 90.8687 126.555 88.832 121.472V121.488ZM207.616 206.384C207.616 205.872 207.36 205.616 207.36 205.104C204.842 197.095 201.131 189.511 196.352 182.608C191.568 175.654 185.69 169.521 178.944 164.448C173.792 160.572 168.208 157.308 162.304 154.72C164.99 152.948 167.479 150.894 169.728 148.592C173.545 144.824 176.896 140.613 179.712 136.048C185.382 126.733 188.31 116.008 188.16 105.104C188.239 97.0322 186.671 89.0291 183.552 81.584C180.472 74.4102 176.04 67.8969 170.496 62.4C164.961 56.9605 158.446 52.6174 151.296 49.6C143.838 46.4863 135.825 44.9239 127.744 45.008C119.662 44.929 111.648 46.4968 104.192 49.616C96.9801 52.627 90.4498 57.0622 84.992 62.656C79.5527 68.1854 75.2095 74.6947 72.192 81.84C69.0728 89.2851 67.5048 97.2882 67.584 105.36C67.584 110.992 68.352 116.368 69.888 121.472C71.424 126.848 73.472 131.712 76.288 136.304C78.848 140.912 82.432 145.008 86.272 148.848C88.576 151.152 91.136 153.184 93.952 154.976C88.0294 157.633 82.4435 160.984 77.312 164.96C70.656 170.08 64.768 176.208 59.904 182.864C55.0761 189.738 51.3613 197.33 48.896 205.36C48.64 205.872 48.64 206.384 48.64 206.64C28.416 186.176 15.872 158.56 15.872 127.872C15.872 66.24 66.304 15.856 128 15.856C189.696 15.856 240.128 66.24 240.128 127.872C240.094 157.311 228.405 185.54 207.616 206.384V206.384Z" fill="#009FB7"/>
</svg>
