<svg width="128" height="128" viewBox="0 0 128 128" fill="none" xmlns="http://www.w3.org/2000/svg">
<path d="M16 21.3333V85.3333C16 91.216 20.784 96 26.6667 96H45.792L64 114.208L82.208 96H101.333C107.216 96 112 91.216 112 85.3333V21.3333C112 15.4506 107.216 10.6666 101.333 10.6666H26.6667C20.784 10.6666 16 15.4506 16 21.3333ZM26.6667 21.3333H101.333V85.3333H77.792L64 99.1253L50.208 85.3333H26.6667V21.3333Z" fill="#009FB7"/>
<path d="M91.7707 38.4373L84.2293 30.896L58.6667 56.4587L46.4373 44.2293L38.896 51.7707L58.6667 71.5413L91.7707 38.4373Z" fill="#009FB7"/>
</svg>
