<svg width="256" height="256" viewBox="0 0 256 256" fill="none" xmlns="http://www.w3.org/2000/svg">
<path d="M64.425 188C64.925 188 65.425 187.95 65.925 187.875L107.975 180.5C108.475 180.4 108.95 180.175 109.3 179.8L215.275 73.825C215.507 73.5937 215.691 73.319 215.816 73.0166C215.942 72.7141 216.006 72.3899 216.006 72.0625C216.006 71.7351 215.942 71.4109 215.816 71.1084C215.691 70.806 215.507 70.5313 215.275 70.3L173.725 28.725C173.25 28.25 172.625 28 171.95 28C171.275 28 170.65 28.25 170.175 28.725L64.2 134.7C63.825 135.075 63.6 135.525 63.5 136.025L56.125 178.075C55.8818 179.414 55.9687 180.793 56.3782 182.091C56.7877 183.389 57.5074 184.568 58.475 185.525C60.125 187.125 62.2 188 64.425 188V188ZM81.275 144.4L171.95 53.75L190.275 72.075L99.6 162.725L77.375 166.65L81.275 144.4V144.4ZM220 209H36C31.575 209 28 212.575 28 217V226C28 227.1 28.9 228 30 228H226C227.1 228 228 227.1 228 226V217C228 212.575 224.425 209 220 209Z" fill="#009FB7"/>
</svg>
