<svg width="256" height="256" viewBox="0 0 256 256" fill="none" xmlns="http://www.w3.org/2000/svg">
<path d="M47.76 24L45.248 26.752C45.248 26.752 39.2 32 35.248 32V48C40.688 48 44.448 45.792 48 43.76V80H64V24H47.76ZM88 48V64H224V48H88ZM52 96C49.3727 95.9968 46.7705 96.512 44.3426 97.516C41.9147 98.52 39.7086 99.993 37.8508 101.851C35.993 103.709 34.52 105.915 33.516 108.343C32.512 110.771 31.9969 113.373 32 116V120H48V116C48 114.264 50.264 112 52 112C53.736 112 56 114.264 56 116L55.76 116.24L55.248 116.752L34.504 136.752L32 138.992V152H72V136H58.24L65.248 129L66.248 128.248L66.008 128.008C70.024 124.728 72.008 119.848 72.008 116.008C72.0101 113.38 71.494 110.777 70.4893 108.349C69.4845 105.92 68.0108 103.714 66.1525 101.856C64.2942 99.9972 62.0877 98.5235 59.6592 97.5187C57.2308 96.514 54.6281 95.9979 52 96ZM88 120V136H224V120H88ZM32 168V184H43L41 187.248L40 189.008V200H52C53.736 200 56 202.264 56 204C56 205.736 53.736 208 52 208H32V224H52C63.064 224 72 215.064 72 204C72 195.96 66.576 190.432 59.76 187.248L63 181.752L64 179.752V168H32ZM88 192V208H224V192H88Z" fill="#009FB7"/>
</svg>
