<svg width="256" height="256" viewBox="0 0 256 256" fill="none" xmlns="http://www.w3.org/2000/svg">
<path d="M85.3334 114.773H79.1467C70.7041 114.468 62.2888 115.901 54.4232 118.984C46.5575 122.067 39.4094 126.733 33.4222 132.693L31.7156 134.684V193.564H60.7289V160.142L64.64 155.733L66.4178 153.671C75.6759 144.16 87.202 137.161 99.9111 133.333C93.5481 128.492 88.5297 122.102 85.3334 114.773V114.773Z" fill="#009FB7"/>
<path d="M222.862 132.48C216.875 126.52 209.727 121.853 201.861 118.771C193.996 115.688 185.58 114.255 177.138 114.56C174.548 114.567 171.961 114.71 169.387 114.987C166.13 121.862 161.249 127.842 155.164 132.409C168.732 136.162 181.023 143.537 190.72 153.742L192.498 155.733L196.338 160.142V193.636H224.356V134.471L222.862 132.48Z" fill="#009FB7"/>
<path d="M78.9333 100.907H81.1378C80.1135 92.1119 81.6567 83.2087 85.581 75.2718C89.5053 67.3348 95.6431 60.7033 103.253 56.1778C100.495 51.9634 96.6888 48.5376 92.2084 46.2361C87.728 43.9345 82.7266 42.8359 77.6941 43.048C72.6616 43.2601 67.7704 44.7755 63.4995 47.4459C59.2286 50.1163 55.7245 53.85 53.3302 58.2816C50.9359 62.7131 49.7335 67.6906 49.8408 72.7264C49.9482 77.7623 51.3615 82.6839 53.9424 87.0094C56.5234 91.335 60.1834 94.916 64.5642 97.402C68.945 99.888 73.8963 101.194 78.9333 101.191V100.907Z" fill="#009FB7"/>
<path d="M173.724 95.5733C173.811 97.2078 173.811 98.8456 173.724 100.48C175.089 100.696 176.467 100.815 177.849 100.836H179.2C184.215 100.568 189.075 99.0068 193.307 96.3035C197.54 93.6002 201 89.8471 203.351 85.4096C205.702 80.972 206.865 76.0012 206.724 70.9812C206.584 65.9612 205.147 61.063 202.552 56.7634C199.957 52.4639 196.293 48.9095 191.916 46.4464C187.54 43.9833 182.6 42.6954 177.578 42.708C172.556 42.7207 167.623 44.0334 163.259 46.5185C158.895 49.0036 155.249 52.5764 152.676 56.8889C159.112 61.0911 164.404 66.8253 168.078 73.577C171.752 80.3288 173.692 87.8869 173.724 95.5733V95.5733Z" fill="#009FB7"/>
<path d="M127.075 127.431C144.631 127.431 158.862 113.2 158.862 95.6445C158.862 78.0892 144.631 63.8578 127.075 63.8578C109.52 63.8578 95.2888 78.0892 95.2888 95.6445C95.2888 113.2 109.52 127.431 127.075 127.431Z" fill="#009FB7"/>
<path d="M128.782 144.356C119.495 143.981 110.229 145.488 101.54 148.788C92.8509 152.087 84.9193 157.111 78.2222 163.556L76.4445 165.547V210.56C76.4722 212.026 76.7885 213.473 77.3754 214.817C77.9623 216.16 78.8081 217.376 79.8647 218.393C80.9213 219.41 82.1679 220.208 83.5332 220.743C84.8986 221.279 86.356 221.539 87.8222 221.511H169.529C170.995 221.539 172.453 221.279 173.818 220.743C175.183 220.208 176.43 219.41 177.486 218.393C178.543 217.376 179.389 216.16 179.976 214.817C180.563 213.473 180.879 212.026 180.907 210.56V165.689L179.2 163.556C172.546 157.091 164.642 152.054 155.973 148.752C147.303 145.45 138.051 143.954 128.782 144.356V144.356Z" fill="#009FB7"/>
</svg>
