<svg width="256" height="192" viewBox="0 0 256 192" fill="none" xmlns="http://www.w3.org/2000/svg">
<path fill-rule="evenodd" clip-rule="evenodd" d="M240 192C240 192 256 192 256 176C256 160 240 112 176 112C112 112 96 160 96 176C96 192 112 192 112 192H240ZM112.352 176H239.648C239.723 175.991 239.798 175.981 239.872 175.968L240 175.936C239.968 171.712 237.328 159.456 227.84 148.416C219.008 138.064 203.488 128 176 128C148.528 128 133.008 138.08 124.16 148.416C114.672 159.456 112.016 171.728 112 175.936C112.117 175.959 112.234 175.98 112.352 176ZM176 80C184.487 80 192.626 76.6286 198.627 70.6274C204.629 64.6263 208 56.4869 208 48C208 39.5131 204.629 31.3737 198.627 25.3726C192.626 19.3714 184.487 16 176 16C167.513 16 159.374 19.3714 153.373 25.3726C147.371 31.3737 144 39.5131 144 48C144 56.4869 147.371 64.6263 153.373 70.6274C159.374 76.6286 167.513 80 176 80ZM224 48C224 54.3035 222.758 60.5452 220.346 66.3688C217.934 72.1924 214.398 77.4839 209.941 81.9411C205.484 86.3983 200.192 89.934 194.369 92.3462C188.545 94.7584 182.303 96 176 96C169.697 96 163.455 94.7584 157.631 92.3462C151.808 89.934 146.516 86.3983 142.059 81.9411C137.602 77.4839 134.066 72.1924 131.654 66.3688C129.242 60.5452 128 54.3035 128 48C128 35.2696 133.057 23.0606 142.059 14.0589C151.061 5.05713 163.27 0 176 0C188.73 0 200.939 5.05713 209.941 14.0589C218.943 23.0606 224 35.2696 224 48ZM110.976 116.48C104.576 114.465 97.9782 113.14 91.296 112.528C87.5413 112.171 83.7716 111.995 80 112C16 112 0 160 0 176C0 186.672 5.328 192 16 192H83.456C81.0841 187.005 79.9012 181.529 80 176C80 159.84 86.032 143.328 97.44 129.536C101.328 124.832 105.856 120.432 110.976 116.48ZM78.72 128C52.032 128.32 36.88 138.24 28.16 148.416C18.608 159.52 16 171.824 16 176H64C64 159.28 69.168 142.624 78.72 128ZM24 56C24 43.2696 29.0571 31.0606 38.0589 22.0589C47.0606 13.0571 59.2696 8 72 8C84.7304 8 96.9394 13.0571 105.941 22.0589C114.943 31.0606 120 43.2696 120 56C120 68.7304 114.943 80.9394 105.941 89.9411C96.9394 98.9429 84.7304 104 72 104C59.2696 104 47.0606 98.9429 38.0589 89.9411C29.0571 80.9394 24 68.7304 24 56ZM72 24C63.5131 24 55.3737 27.3714 49.3726 33.3726C43.3714 39.3737 40 47.5131 40 56C40 64.4869 43.3714 72.6263 49.3726 78.6274C55.3737 84.6286 63.5131 88 72 88C80.4869 88 88.6263 84.6286 94.6274 78.6274C100.629 72.6263 104 64.4869 104 56C104 47.5131 100.629 39.3737 94.6274 33.3726C88.6263 27.3714 80.4869 24 72 24Z" fill="#0094B7"/>
</svg>
