<svg width="64" height="64" viewBox="0 0 64 64" fill="none" xmlns="http://www.w3.org/2000/svg">
<path fill-rule="evenodd" clip-rule="evenodd" d="M60 56C60 56 64 56 64 52C64 48 60 36 44 36C28 36 24 48 24 52C24 56 28 56 28 56H60ZM28.02 52.224V52.216V52.224ZM28.088 52H59.912C59.9307 51.9978 59.9494 51.9951 59.968 51.992L60 51.984C59.992 50.928 59.332 47.864 56.96 45.104C54.752 42.516 50.872 40 44 40C37.132 40 33.252 42.52 31.04 45.104C28.668 47.864 28.004 50.932 28 51.984C28.0293 51.9896 28.0586 51.995 28.088 52V52ZM59.98 52.224V52.216V52.224ZM44 28C46.1217 28 48.1566 27.1571 49.6569 25.6569C51.1571 24.1566 52 22.1217 52 20C52 17.8783 51.1571 15.8434 49.6569 14.3431C48.1566 12.8429 46.1217 12 44 12C41.8783 12 39.8434 12.8429 38.3431 14.3431C36.8429 15.8434 36 17.8783 36 20C36 22.1217 36.8429 24.1566 38.3431 25.6569C39.8434 27.1571 41.8783 28 44 28ZM56 20C56 21.5759 55.6896 23.1363 55.0866 24.5922C54.4835 26.0481 53.5996 27.371 52.4853 28.4853C51.371 29.5996 50.0481 30.4835 48.5922 31.0866C47.1363 31.6896 45.5759 32 44 32C42.4241 32 40.8637 31.6896 39.4078 31.0866C37.9519 30.4835 36.629 29.5996 35.5147 28.4853C34.4004 27.371 33.5165 26.0481 32.9134 24.5922C32.3104 23.1363 32 21.5759 32 20C32 16.8174 33.2643 13.7652 35.5147 11.5147C37.7652 9.26428 40.8174 8 44 8C47.1826 8 50.2348 9.26428 52.4853 11.5147C54.7357 13.7652 56 16.8174 56 20V20ZM27.744 37.12C26.1439 36.6162 24.4945 36.2849 22.824 36.132C21.8853 36.0427 20.9429 35.9987 20 36C4 36 0 48 0 52C0 54.668 1.332 56 4 56H20.864C20.271 54.7513 19.9753 53.3822 20 52C20 47.96 21.508 43.832 24.36 40.384C25.332 39.208 26.464 38.108 27.744 37.12ZM19.68 40C13.008 40.08 9.22 42.56 7.04 45.104C4.652 47.88 4 50.956 4 52H16C16 47.82 17.292 43.656 19.68 40ZM6 22C6 18.8174 7.26428 15.7652 9.51472 13.5147C11.7652 11.2643 14.8174 10 18 10C21.1826 10 24.2348 11.2643 26.4853 13.5147C28.7357 15.7652 30 18.8174 30 22C30 25.1826 28.7357 28.2348 26.4853 30.4853C24.2348 32.7357 21.1826 34 18 34C14.8174 34 11.7652 32.7357 9.51472 30.4853C7.26428 28.2348 6 25.1826 6 22V22ZM18 14C15.8783 14 13.8434 14.8429 12.3431 16.3431C10.8429 17.8434 10 19.8783 10 22C10 24.1217 10.8429 26.1566 12.3431 27.6569C13.8434 29.1571 15.8783 30 18 30C20.1217 30 22.1566 29.1571 23.6569 27.6569C25.1571 26.1566 26 24.1217 26 22C26 19.8783 25.1571 17.8434 23.6569 16.3431C22.1566 14.8429 20.1217 14 18 14Z" fill="white"/>
</svg>
