<svg width="128" height="128" viewBox="0 0 128 128" fill="none" xmlns="http://www.w3.org/2000/svg">
<path d="M63.9998 6.18752C41.265 5.87915 19.3593 20.5106 10.7357 41.512C1.72835 62.1466 6.40847 87.7797 22.1646 103.873C37.3186 120.185 62.2865 126.172 83.1971 118.54C104.868 111.16 120.867 89.8776 121.737 66.9715C123.196 44.4633 109.954 22.0076 89.6774 12.2031C81.7378 8.24102 72.8717 6.17484 63.9998 6.18752ZM63.9998 12.4375C86.455 12.047 107.811 28.1773 113.609 49.8706C119.673 70.3024 111.471 93.9585 93.8648 106.06C75.5765 119.502 48.4561 118.529 31.1859 103.8C13.785 89.9263 7.55635 64.264 16.4842 43.9136C24.2222 25.1003 43.646 12.1987 63.9998 12.4375ZM37.7733 43.997V84.0031H90.2264V43.9969H37.7733V43.997ZM49.4254 50.2472H78.57C73.4078 53.4238 68.245 60.3971 63.0835 61.158C58.531 57.5208 53.9782 53.884 49.4253 50.2472H49.4254ZM83.984 53.9268V77.7528H44.0157V53.9286C50.6751 59.2506 57.3343 64.573 63.994 69.8947C70.6576 64.5724 77.3207 59.2494 83.984 53.9268V53.9268Z" fill="#009FB7"/>
</svg>
