<svg width="128" height="128" viewBox="0 0 128 128" fill="none" xmlns="http://www.w3.org/2000/svg">
<path d="M101.333 37.3333C101.333 37.3333 74.6666 74.6666 34.6666 74.6666C23.9999 74.6666 5.33325 80 5.33325 101.333V122.667H63.9999V101.333C63.9999 88 79.9999 96 101.333 58.6666L93.3333 50.6666L101.333 37.3333ZM15.9999 26.6666V10.6666H122.667V85.3333H106.667L15.9999 26.6666ZM58.6666 5.33331H79.9999V16H58.6666V5.33331ZM34.6666 74.6666C39.6173 74.6666 44.3652 72.7 47.8659 69.1993C51.3666 65.6986 53.3333 60.9507 53.3333 56C53.3333 51.0493 51.3666 46.3013 47.8659 42.8007C44.3652 39.3 39.6173 37.3333 34.6666 37.3333C29.7159 37.3333 24.9679 39.3 21.4673 42.8007C17.9666 46.3013 15.9999 51.0493 15.9999 56C15.9999 60.9507 17.9666 65.6986 21.4673 69.1993C24.9679 72.7 29.7159 74.6666 34.6666 74.6666V74.6666Z" stroke="#009FB7" stroke-width="10.6667"/>
</svg>
