<svg width="64" height="64" viewBox="0 0 64 64" fill="none" xmlns="http://www.w3.org/2000/svg">
<path d="M50.6667 18.6667C50.6667 18.6667 37.3333 37.3333 17.3333 37.3333C12 37.3333 2.66667 40 2.66667 50.6667V61.3333H32V50.6667C32 44 40 48 50.6667 29.3333L46.6667 25.3333L50.6667 18.6667ZM8 13.3333V5.33332H61.3333V42.6667H53.3333L8 13.3333ZM29.3333 2.66666H40V7.99999H29.3333V2.66666ZM17.3333 37.3333C19.8087 37.3333 22.1827 36.35 23.933 34.5997C25.6833 32.8493 26.6667 30.4753 26.6667 28C26.6667 25.5246 25.6833 23.1507 23.933 21.4003C22.1827 19.65 19.8087 18.6667 17.3333 18.6667C14.858 18.6667 12.484 19.65 10.7337 21.4003C8.98334 23.1507 8 25.5246 8 28C8 30.4753 8.98334 32.8493 10.7337 34.5997C12.484 36.35 14.858 37.3333 17.3333 37.3333V37.3333Z" stroke="white" stroke-width="2"/>
</svg>
