<svg width="128" height="128" viewBox="0 0 128 128" fill="none" xmlns="http://www.w3.org/2000/svg">
<path fill-rule="evenodd" clip-rule="evenodd" d="M53.9999 8C52.4086 8 50.8825 8.63214 49.7573 9.75736C48.6321 10.8826 47.9999 12.4087 47.9999 14V72C47.9999 73.0609 47.5785 74.0783 46.8284 74.8284C46.0782 75.5786 45.0608 76 43.9999 76C42.9391 76 41.9217 75.5786 41.1715 74.8284C40.4214 74.0783 39.9999 73.0609 39.9999 72V64.88L31.9759 66.48C30.9936 66.6761 30.1206 67.2337 29.5295 68.0425C28.9385 68.8513 28.6724 69.8525 28.7839 70.848L31.5439 95.688C31.7569 97.5938 32.4235 99.4208 33.4879 101.016L44.9519 118.216C45.3169 118.764 45.8116 119.214 46.3922 119.525C46.9728 119.837 47.6212 120 48.2799 120H99.3599C100.065 120 100.757 119.813 101.367 119.459C101.977 119.105 102.482 118.596 102.832 117.984L113.992 98.448C115.384 96.0124 116.248 93.3113 116.528 90.52L118.704 68.8C118.816 67.6876 118.693 66.564 118.344 65.5019C117.995 64.4397 117.427 63.4626 116.677 62.6334C115.927 61.8042 115.011 61.1415 113.99 60.6879C112.968 60.2343 111.862 60 110.744 60H108V68C108 69.0609 107.579 70.0783 106.828 70.8284C106.078 71.5786 105.061 72 104 72C102.939 72 101.922 71.5786 101.172 70.8284C100.421 70.0783 99.9999 69.0609 99.9999 68V57.232C99.4938 56.5181 98.9601 55.8243 98.3999 55.152C96.9039 53.376 95.4559 52.088 94.5119 51.712C93.5199 51.312 91.3759 51.208 88.8479 51.4C88.565 51.4236 88.2823 51.4502 87.9999 51.48V64C87.9999 65.0609 87.5785 66.0783 86.8284 66.8284C86.0782 67.5786 85.0608 68 83.9999 68C82.9391 68 81.9217 67.5786 81.1715 66.8284C80.4214 66.0783 79.9999 65.0609 79.9999 64V47.888C79.9999 46.552 79.4159 45.712 78.7999 45.376C77.6829 44.718 76.4754 44.2275 75.216 43.92C73.7839 43.64 71.216 43.6 68.688 43.704L67.9999 43.736V64C67.9999 65.0609 67.5785 66.0783 66.8284 66.8284C66.0782 67.5786 65.0608 68 63.9999 68C62.9391 68 61.9217 67.5786 61.1715 66.8284C60.4214 66.0783 59.9999 65.0609 59.9999 64V14C59.9999 12.4087 59.3678 10.8826 58.2426 9.75736C57.1174 8.63214 55.5912 8 53.9999 8V8ZM67.9999 35.728V14C67.9999 10.287 66.525 6.72601 63.8994 4.1005C61.2739 1.475 57.713 0 53.9999 0C50.2869 0 46.726 1.475 44.1005 4.1005C41.4749 6.72601 39.9999 10.287 39.9999 14V56.72L30.4079 58.64C27.4639 59.2282 24.8473 60.8986 23.0745 63.3216C21.3017 65.7445 20.5016 68.744 20.8319 71.728L23.5919 96.576C23.9469 99.7524 25.0579 102.797 26.8319 105.456L38.2959 122.656C39.3917 124.3 40.8763 125.648 42.6179 126.58C44.3596 127.512 46.3045 128 48.2799 128H99.3599C101.475 127.999 103.553 127.44 105.382 126.377C107.211 125.315 108.727 123.789 109.776 121.952L120.936 102.424C122.887 99.0105 124.097 95.2243 124.488 91.312L126.664 69.592C126.886 67.3677 126.64 65.1215 125.941 62.9982C125.243 60.8749 124.107 58.9216 122.607 57.2641C121.107 55.6067 119.276 54.2819 117.233 53.3752C115.19 52.4686 112.979 52.0001 110.744 52H106.088C105.588 51.323 105.068 50.6614 104.528 50.016C103 48.184 100.448 45.472 97.4879 44.288C94.5759 43.12 90.7199 43.232 88.2239 43.424L87.1679 43.52C86.3162 41.3398 84.7323 39.5239 82.688 38.384C80.8474 37.3227 78.8568 36.546 76.7839 36.08C74.3039 35.584 70.8719 35.616 68.3839 35.712L67.9999 35.728V35.728Z" fill="white"/>
</svg>
