<svg width="64" height="64" viewBox="0 0 64 64" fill="none" xmlns="http://www.w3.org/2000/svg">
<path d="M31.9999 5.33333C26.7258 5.33333 21.57 6.8973 17.1847 9.82747C12.7994 12.7576 9.38148 16.9224 7.36314 21.7951C5.34481 26.6678 4.81672 32.0296 5.84566 37.2024C6.8746 42.3752 9.41435 47.1268 13.1438 50.8562C16.8732 54.5856 21.6247 57.1253 26.7975 58.1543C31.9704 59.1832 37.3321 58.6551 42.2048 56.6368C47.0775 54.6184 51.2423 51.2005 54.1725 46.8152C57.1026 42.4299 58.6666 37.2742 58.6666 32C58.6666 28.4981 57.9768 25.0305 56.6367 21.7951C55.2966 18.5598 53.3323 15.62 50.8561 13.1438C48.3799 10.6676 45.4402 8.70333 42.2048 7.36321C38.9695 6.02308 35.5018 5.33333 31.9999 5.33333V5.33333ZM31.9999 53.3333C27.7806 53.3333 23.656 52.0821 20.1478 49.738C16.6395 47.3939 13.9052 44.0621 12.2905 40.1639C10.6758 36.2658 10.2534 31.9763 11.0765 27.8381C11.8997 23.6998 13.9315 19.8986 16.915 16.9151C19.8985 13.9315 23.6997 11.8997 27.838 11.0766C31.9763 10.2534 36.2657 10.6759 40.1638 12.2906C44.062 13.9052 47.3938 16.6396 49.7379 20.1478C52.0821 23.6561 53.3333 27.7807 53.3333 32C53.3333 37.6579 51.0857 43.0842 47.0849 47.0849C43.0841 51.0857 37.6579 53.3333 31.9999 53.3333V53.3333Z" fill="#009FB7"/>
<path d="M39.1999 22.3733L29.1199 35.7067L24.7733 30.08C24.3383 29.5213 23.6992 29.1582 22.9966 29.0707C22.2939 28.9832 21.5853 29.1784 21.0266 29.6133C20.4679 30.0483 20.1048 30.6874 20.0173 31.39C19.9298 32.0926 20.125 32.8013 20.5599 33.36L27.0399 41.6533C27.2911 41.9711 27.6113 42.2276 27.9763 42.4031C28.3413 42.5787 28.7416 42.6688 29.1466 42.6667C29.5539 42.6657 29.9555 42.5714 30.3206 42.3912C30.6858 42.2109 31.0048 41.9494 31.2533 41.6267L43.4399 25.6267C43.8714 25.0609 44.0603 24.3469 43.9653 23.6417C43.8703 22.9366 43.4991 22.2981 42.9333 21.8667C42.3675 21.4352 41.6535 21.2463 40.9483 21.3413C40.2432 21.4363 39.6047 21.8075 39.1733 22.3733H39.1999Z" fill="#009FB7"/>
</svg>
