<svg width="309" height="225" viewBox="0 0 309 225" fill="none" xmlns="http://www.w3.org/2000/svg">
<rect x="1.12012" y="0.5" width="307.086" height="215.349" fill="#E5E5E5" stroke="black"/>
<path d="M140.478 165.123C140.03 165.475 139.55 165.523 139.038 165.267C138.558 165.011 138.318 164.611 138.318 164.067V162.147C138.318 160.355 139.038 158.899 140.478 157.779L145.614 153.843C147.054 152.755 148.686 152.211 150.51 152.211H151.95C152.686 152.211 153.31 152.483 153.822 153.027C154.366 153.571 154.638 154.211 154.638 154.947V184.515C154.638 185.251 154.366 185.891 153.822 186.435C153.31 186.979 152.686 187.251 151.95 187.251H150.51C149.774 187.251 149.134 186.979 148.59 186.435C148.046 185.891 147.774 185.251 147.774 184.515V159.603L147.726 159.555L147.678 159.603L140.478 165.123Z" fill="black"/>
</svg>
