<svg width="321" height="128" viewBox="0 0 321 128" fill="none" xmlns="http://www.w3.org/2000/svg">
<rect x="0.5" y="1.14938" width="319.62" height="105.699" fill="#E5E5E5" stroke="black"/>
<path d="M142.298 52.0769C141.562 52.0769 140.922 51.8209 140.378 51.3089C139.834 50.7649 139.562 50.1249 139.562 49.3889C139.562 48.6529 139.834 48.0129 140.378 47.4689C140.922 46.9249 141.562 46.6529 142.298 46.6529H159.338C160.074 46.6529 160.698 46.9249 161.21 47.4689C161.754 48.0129 162.026 48.6529 162.026 49.3889C162.026 51.2129 161.354 52.7169 160.01 53.9009L152.234 60.9569C152.202 60.9889 152.186 61.0209 152.186 61.0529C152.186 61.0849 152.202 61.1009 152.234 61.1009H153.002C155.946 61.1009 158.266 61.9489 159.962 63.6449C161.658 65.3089 162.506 67.6449 162.506 70.6529C162.506 74.3329 161.386 77.1809 159.146 79.1969C156.906 81.1809 153.706 82.1729 149.546 82.1729C147.082 82.1729 144.698 81.8849 142.394 81.3089C141.626 81.1169 141.002 80.6849 140.522 80.0129C140.042 79.3409 139.802 78.5889 139.802 77.7569V77.2289C139.802 76.5889 140.058 76.0929 140.57 75.7409C141.114 75.3569 141.706 75.2609 142.346 75.4529C144.938 76.3169 147.242 76.7489 149.258 76.7489C151.37 76.7489 153.002 76.2369 154.154 75.2129C155.306 74.1889 155.882 72.7009 155.882 70.7489C155.882 68.9569 155.226 67.6769 153.914 66.9089C152.634 66.1089 150.362 65.7089 147.098 65.7089H146.57C145.93 65.7089 145.37 65.4689 144.89 64.9889C144.442 64.5089 144.218 63.9489 144.218 63.3089C144.218 61.7089 144.794 60.3809 145.946 59.3249L153.77 52.2209C153.802 52.1889 153.818 52.1569 153.818 52.1249C153.818 52.0929 153.802 52.0769 153.77 52.0769H142.298Z" fill="black"/>
</svg>
