<svg width="309" height="225" viewBox="0 0 309 225" fill="none" xmlns="http://www.w3.org/2000/svg">
<rect x="308.206" y="223.716" width="307.086" height="215.349" transform="rotate(-180 308.206 223.716)" fill="#E5E5E5" stroke="black"/>
<path d="M168.848 59.0927C169.296 58.7407 169.776 58.6927 170.288 58.9487C170.768 59.2047 171.008 59.6047 171.008 60.1487V62.0687C171.008 63.8607 170.288 65.3167 168.848 66.4367L163.712 70.3727C162.272 71.4607 160.64 72.0047 158.816 72.0047H157.376C156.64 72.0047 156.016 71.7327 155.504 71.1887C154.96 70.6447 154.688 70.0047 154.688 69.2687V39.7007C154.688 38.9647 154.96 38.3247 155.504 37.7807C156.016 37.2367 156.64 36.9647 157.376 36.9647H158.816C159.552 36.9647 160.192 37.2367 160.736 37.7807C161.28 38.3247 161.552 38.9647 161.552 39.7007V64.6127L161.6 64.6607L161.648 64.6127L168.848 59.0927Z" fill="black"/>
</svg>
