<svg width="1390" height="998" viewBox="0 0 1390 998" fill="none" xmlns="http://www.w3.org/2000/svg">
<rect x="486.514" y="0.5" width="465.573" height="997" fill="#E5E5E5" stroke="black"/>
<rect x="953.087" y="231.92" width="436.413" height="765.58" fill="#E5E5E5" stroke="black"/>
<rect x="0.5" y="506.732" width="485.014" height="490.768" fill="#E5E5E5" stroke="black"/>
<path d="M694.558 600.848C693.214 601.904 691.774 602.048 690.238 601.28C688.798 600.512 688.078 599.312 688.078 597.68V591.92C688.078 586.544 690.238 582.176 694.558 578.816L709.966 567.008C714.286 563.744 719.182 562.112 724.654 562.112H728.974C731.182 562.112 733.054 562.928 734.59 564.56C736.222 566.192 737.038 568.112 737.038 570.32V659.024C737.038 661.232 736.222 663.152 734.59 664.784C733.054 666.416 731.182 667.232 728.974 667.232H724.654C722.446 667.232 720.526 666.416 718.894 664.784C717.262 663.152 716.446 661.232 716.446 659.024V584.288L716.302 584.144L716.158 584.288L694.558 600.848Z" fill="black"/>
<path d="M1235.04 591.344C1235.04 600.368 1232.16 609.056 1226.4 617.408C1220.74 625.664 1209.7 636.656 1193.28 650.384C1193.09 650.576 1192.99 650.72 1192.99 650.816C1192.99 650.912 1193.04 650.96 1193.14 650.96H1227.12C1229.33 650.96 1231.25 651.776 1232.88 653.408C1234.51 654.944 1235.33 656.816 1235.33 659.024C1235.33 661.232 1234.51 663.152 1232.88 664.784C1231.25 666.416 1229.33 667.232 1227.12 667.232H1174.27C1172.06 667.232 1170.14 666.416 1168.51 664.784C1166.98 663.152 1166.21 661.232 1166.21 659.024C1166.21 653.552 1168.27 649.184 1172.4 645.92C1189.01 632.672 1200.14 622.352 1205.81 614.96C1211.47 607.568 1214.3 600.368 1214.3 593.36C1214.3 582.704 1208.59 577.376 1197.17 577.376C1191.31 577.376 1184.21 579.008 1175.86 582.272C1174.03 583.04 1172.3 582.896 1170.67 581.84C1169.14 580.784 1168.37 579.344 1168.37 577.52V575.072C1168.37 572.576 1169.04 570.32 1170.38 568.304C1171.82 566.192 1173.7 564.8 1176 564.128C1184.16 561.824 1192.18 560.672 1200.05 560.672C1211.28 560.672 1219.92 563.36 1225.97 568.736C1232.02 574.112 1235.04 581.648 1235.04 591.344Z" fill="black"/>
<path d="M211.82 592.848C209.612 592.848 207.692 592.08 206.06 590.544C204.428 588.912 203.612 586.992 203.612 584.784C203.612 582.576 204.428 580.656 206.06 579.024C207.692 577.392 209.612 576.576 211.82 576.576H262.94C265.148 576.576 267.02 577.392 268.556 579.024C270.188 580.656 271.004 582.576 271.004 584.784C271.004 590.256 268.988 594.768 264.956 598.32L241.628 619.488C241.532 619.584 241.484 619.68 241.484 619.776C241.484 619.872 241.532 619.92 241.628 619.92H243.932C252.764 619.92 259.724 622.464 264.812 627.552C269.9 632.544 272.444 639.552 272.444 648.576C272.444 659.616 269.084 668.16 262.364 674.208C255.644 680.16 246.044 683.136 233.564 683.136C226.172 683.136 219.02 682.272 212.108 680.544C209.804 679.968 207.932 678.672 206.492 676.656C205.052 674.64 204.332 672.384 204.332 669.888V668.304C204.332 666.384 205.1 664.896 206.636 663.84C208.268 662.688 210.044 662.4 211.964 662.976C219.74 665.568 226.652 666.864 232.7 666.864C239.036 666.864 243.932 665.328 247.388 662.256C250.844 659.184 252.572 654.72 252.572 648.864C252.572 643.488 250.604 639.648 246.668 637.344C242.828 634.944 236.012 633.744 226.22 633.744H224.636C222.716 633.744 221.036 633.024 219.596 631.584C218.252 630.144 217.58 628.464 217.58 626.544C217.58 621.744 219.308 617.76 222.764 614.592L246.236 593.28C246.332 593.184 246.38 593.088 246.38 592.992C246.38 592.896 246.332 592.848 246.236 592.848H211.82Z" fill="black"/>
</svg>
