<svg width="289" height="175" viewBox="0 0 289 175" fill="none" xmlns="http://www.w3.org/2000/svg">
<rect x="1.20581" y="0.653534" width="287.294" height="165.195" fill="#E5E5E5" stroke="black"/>
<path d="M169.576 111.955C169.576 114.963 168.616 117.859 166.696 120.643C164.808 123.395 161.128 127.059 155.656 131.635C155.592 131.699 155.56 131.747 155.56 131.779C155.56 131.811 155.576 131.827 155.608 131.827H166.936C167.672 131.827 168.312 132.099 168.856 132.643C169.4 133.155 169.672 133.779 169.672 134.515C169.672 135.251 169.4 135.891 168.856 136.435C168.312 136.979 167.672 137.251 166.936 137.251H149.32C148.584 137.251 147.944 136.979 147.4 136.435C146.888 135.891 146.632 135.251 146.632 134.515C146.632 132.691 147.32 131.235 148.696 130.147C154.232 125.731 157.944 122.291 159.832 119.827C161.72 117.363 162.664 114.963 162.664 112.627C162.664 109.075 160.76 107.299 156.952 107.299C155 107.299 152.632 107.843 149.848 108.931C149.24 109.187 148.664 109.139 148.12 108.787C147.608 108.435 147.352 107.955 147.352 107.347V106.531C147.352 105.699 147.576 104.947 148.024 104.275C148.504 103.571 149.128 103.107 149.896 102.883C152.616 102.115 155.288 101.731 157.912 101.731C161.656 101.731 164.536 102.627 166.552 104.419C168.568 106.211 169.576 108.723 169.576 111.955Z" fill="black"/>
</svg>
