<svg width="512" height="512" viewBox="0 0 512 512" fill="none" xmlns="http://www.w3.org/2000/svg">
<path d="M448 96H64C55.5131 96 47.3737 99.3714 41.3726 105.373C35.3714 111.374 32 119.513 32 128V384C32 392.487 35.3714 400.626 41.3726 406.627C47.3737 412.629 55.5131 416 64 416H448C456.487 416 464.626 412.629 470.627 406.627C476.629 400.626 480 392.487 480 384V128C480 119.513 476.629 111.374 470.627 105.373C464.626 99.3714 456.487 96 448 96V96ZM412.8 128L256 236.48L99.2 128H412.8ZM64 384V142.56L246.88 269.12C249.558 270.978 252.74 271.974 256 271.974C259.26 271.974 262.442 270.978 265.12 269.12L448 142.56V384H64Z" fill="white"/>
</svg>
