<svg width="128" height="128" viewBox="0 0 128 128" fill="none" xmlns="http://www.w3.org/2000/svg">
<path d="M107.744 98.96C102.064 89.808 89.5599 80 63.9999 80C38.4399 80 25.9439 89.8 20.2559 98.96C25.4965 105.53 32.1512 110.834 39.7248 114.476C47.2983 118.119 55.5958 120.007 63.9999 120C72.4039 120.007 80.7014 118.119 88.275 114.476C95.8485 110.834 102.503 105.53 107.744 98.96V98.96Z" fill="white"/>
<path fill-rule="evenodd" clip-rule="evenodd" d="M64 72C70.3652 72 76.4697 69.4714 80.9706 64.9706C85.4714 60.4697 88 54.3652 88 48C88 41.6348 85.4714 35.5303 80.9706 31.0294C76.4697 26.5286 70.3652 24 64 24C57.6348 24 51.5303 26.5286 47.0294 31.0294C42.5286 35.5303 40 41.6348 40 48C40 54.3652 42.5286 60.4697 47.0294 64.9706C51.5303 69.4714 57.6348 72 64 72V72Z" fill="white"/>
<path fill-rule="evenodd" clip-rule="evenodd" d="M64 8C49.1479 8 34.9041 13.9 24.402 24.402C13.9 34.9041 8 49.1479 8 64C8 78.8521 13.9 93.0959 24.402 103.598C34.9041 114.1 49.1479 120 64 120C78.8521 120 93.0959 114.1 103.598 103.598C114.1 93.0959 120 78.8521 120 64C120 49.1479 114.1 34.9041 103.598 24.402C93.0959 13.9 78.8521 8 64 8V8ZM0 64C0 47.0261 6.74284 30.7475 18.7452 18.7452C30.7475 6.74284 47.0261 0 64 0C80.9739 0 97.2525 6.74284 109.255 18.7452C121.257 30.7475 128 47.0261 128 64C128 80.9739 121.257 97.2525 109.255 109.255C97.2525 121.257 80.9739 128 64 128C47.0261 128 30.7475 121.257 18.7452 109.255C6.74284 97.2525 0 80.9739 0 64V64Z" fill="white"/>
</svg>
