<svg width="128" height="128" viewBox="0 0 128 128" fill="none" xmlns="http://www.w3.org/2000/svg">
<path d="M104 120H56C53.8783 120 51.8434 119.157 50.3431 117.657C48.8429 116.157 48 114.122 48 112V100H56V112H104V16H56V28H48V16C48 13.8783 48.8429 11.8434 50.3431 10.3431C51.8434 8.84285 53.8783 8 56 8H104C106.122 8 108.157 8.84285 109.657 10.3431C111.157 11.8434 112 13.8783 112 16V112C112 114.122 111.157 116.157 109.657 117.657C108.157 119.157 106.122 120 104 120Z" fill="white"/>
<path d="M58.36 82.36L72.68 68H16V60H72.68L58.36 45.64L64 40L88 64L64 88L58.36 82.36Z" fill="white"/>
</svg>
