<svg width="128" height="128" viewBox="0 0 128 128" fill="none" xmlns="http://www.w3.org/2000/svg">
<path d="M84 8C74.4522 8 65.2955 11.7928 58.5442 18.5442C51.7928 25.2955 48 34.4522 48 44C47.9965 47.5383 48.5223 51.0573 49.56 54.44L8 96V120H32L73.56 78.44C78.7062 80.019 84.1409 80.4238 89.4642 79.6247C94.7875 78.8256 99.8638 76.8429 104.32 73.8225C108.775 70.8022 112.497 66.821 115.211 62.1721C117.924 57.5233 119.561 52.325 120 46.96C120.808 38.4222 118.46 29.8843 113.4 22.96C110.046 18.3038 105.628 14.5167 100.514 11.9144C95.4002 9.31214 89.7381 7.97003 84 8V8ZM84 72C81.2893 71.9894 78.5945 71.5851 76 70.8L71.4 69.4L68 72.8L55.28 85.52L49.64 80L44 85.64L49.52 91.16L43.16 97.52L37.64 92L32 97.64L37.52 103.16L28.68 112H16V99.32L55.2 60L58.6 56.6L57.44 52.8C55.4268 46.4693 55.6834 39.6349 58.1657 33.473C60.648 27.3111 65.2006 22.2073 71.04 19.04C75.2465 16.841 79.943 15.7474 84.6883 15.8621C89.4335 15.9768 94.0717 17.2959 98.1671 19.6956C102.263 22.0952 105.681 25.4966 108.1 29.5801C110.52 33.6637 111.862 38.2954 112 43.04C112.278 48.7005 110.751 54.3029 107.64 59.04C105.109 63.0151 101.615 66.287 97.4825 68.5525C93.35 70.8179 88.7127 72.0037 84 72Z" fill="white"/>
<path d="M88 48C92.4183 48 96 44.4183 96 40C96 35.5817 92.4183 32 88 32C83.5817 32 80 35.5817 80 40C80 44.4183 83.5817 48 88 48Z" fill="white"/>
</svg>
