<svg width="128" height="128" viewBox="0 0 128 128" fill="none" xmlns="http://www.w3.org/2000/svg">
<path fill-rule="evenodd" clip-rule="evenodd" d="M32 8H96C100.243 8 104.313 9.68571 107.314 12.6863C110.314 15.6869 112 19.7565 112 24V104C112 108.243 110.314 112.313 107.314 115.314C104.313 118.314 100.243 120 96 120H32C27.7565 120 23.6869 118.314 20.6863 115.314C17.6857 112.313 16 108.243 16 104V24C16 19.7565 17.6857 15.6869 20.6863 12.6863C23.6869 9.68571 27.7565 8 32 8V8ZM32 16C29.8783 16 27.8434 16.8429 26.3431 18.3431C24.8429 19.8434 24 21.8783 24 24V104C24 106.122 24.8429 108.157 26.3431 109.657C27.8434 111.157 29.8783 112 32 112H96C98.1217 112 100.157 111.157 101.657 109.657C103.157 108.157 104 106.122 104 104V24C104 21.8783 103.157 19.8434 101.657 18.3431C100.157 16.8429 98.1217 16 96 16H32Z" fill="white"/>
<path d="M110.272 112C106.296 101.84 94.368 88 64 88C33.632 88 21.704 101.84 17.728 112H110.272V112Z" fill="white"/>
<path fill-rule="evenodd" clip-rule="evenodd" d="M64 80C67.1517 80 70.2726 79.3792 73.1844 78.1731C76.0962 76.967 78.742 75.1992 80.9706 72.9706C83.1992 70.742 84.967 68.0962 86.1731 65.1844C87.3792 62.2726 88 59.1517 88 56C88 52.8483 87.3792 49.7274 86.1731 46.8156C84.967 43.9038 83.1992 41.258 80.9706 39.0294C78.742 36.8008 76.0962 35.033 73.1844 33.8269C70.2726 32.6208 67.1517 32 64 32C57.6348 32 51.5303 34.5286 47.0294 39.0294C42.5286 43.5303 40 49.6348 40 56C40 62.3652 42.5286 68.4697 47.0294 72.9706C51.5303 77.4714 57.6348 80 64 80V80Z" fill="white"/>
</svg>
